<svg xmlns="http://www.w3.org/2000/svg" viewBox="0 0 512 512" width="512" height="512">
  <defs>
    <radialGradient id="spadeGradient" cx="50%" cy="50%" r="50%">
      <stop offset="0%" style="stop-color:#FFD700;stop-opacity:1" />
      <stop offset="100%" style="stop-color:#B8860B;stop-opacity:1" />
    </radialGradient>
  </defs>
  
  <!-- Background circle -->
  <circle cx="256" cy="256" r="250" fill="#1a1a1a" stroke="url(#spadeGradient)" stroke-width="12"/>
  
  <!-- Spade shape -->
  <path d="M256 80 C180 140, 100 200, 100 280 C100 360, 160 400, 220 400 C240 400, 250 390, 250 370 C250 350, 240 340, 220 340 C200 340, 180 320, 180 280 C180 240, 220 200, 256 160 C292 200, 332 240, 332 280 C332 320, 312 340, 292 340 C272 340, 262 350, 262 370 C262 390, 272 400, 292 400 C352 400, 412 360, 412 280 C412 200, 332 140, 256 80 Z" fill="url(#spadeGradient)"/>
  
  <!-- Stem -->
  <rect x="236" y="340" width="40" height="90" fill="url(#spadeGradient)"/>
</svg>